<?xml version="1.0" encoding="UTF-8"?>
<svg id="Layer_2" data-name="Layer 2" xmlns="http://www.w3.org/2000/svg" viewBox="0 0 986 535.5">
  <defs>
    <style>
      .cls-1 {
        fill: #fcee21;
      }

      .cls-2 {
        fill: #17c8be;
      }
    </style>
  </defs>
  <g id="Layer_1-2" data-name="Layer 1">
    <g>
      <path class="cls-2" d="M562.63,290.91v-46.34c0-16.86,13.77-30.52,30.63-30.51,42.13,.02,83.46,.05,124.78-.03,36.71-.07,73.48,.88,110.11-.98,30.61-1.55,51.94-25.99,50.91-54.14-.95-26-19.98-46.78-47.19-50.54-1.2-.17-20.97-.3-22.2-.4-7.13-.57-14.31-.68-21.77-.62-15.92,.13-28.96-12.65-28.96-28.57V28.81c0-15.11,11.76-27.93,26.85-28.57,8.51-.36,35.43-.32,43.63,.17,46.95,2.81,88.46,20.42,121.06,61.82,40.57,51.53,46.18,109.82,17.92,168.31-30.48,63.09-84.98,90.59-153.86,90.82-72.75,.24-145.49,.11-221.33,.07-16.85,0-30.58-13.66-30.58-30.51Z"/>
      <path class="cls-2" d="M472.45,506.76v-52.82c0-15.07-12.29-27.28-27.35-27.27-21.55,.02-26.02,.04-65.38-.03-36.71-.07,11.02,.88-25.6-.98-30.61-1.55-51.94-25.99-50.91-54.14,.99-27.14,21.69-48.6,50.83-50.94,6.27-.5,81.15-.64,87.65-.63,17.49,.04,31.66-14.24,31.66-31.73v-43.76c0-17.39-14-31.32-31.39-31.76-6.49-.17-81.47-.09-87.77,.25-47.5,2.56-89.49,20.1-122.39,61.9-40.57,51.53-46.18,109.82-17.92,168.31,30.48,63.09,84.98,90.59,153.86,90.82,71.39,.23,33.74,.11,77.41,.07,15.06-.01,27.33-12.22,27.33-27.28Z"/>
      <rect class="cls-1" x="564.76" y="2.37" width="100.85" height="103.05" rx="50.43" ry="50.43"/>
      <rect class="cls-1" x="564.76" y="428.81" width="100.85" height="103.05" rx="50.43" ry="50.43"/>
      <path class="cls-2" d="M0,105.77V499.52c0,22.52,18.3,35.12,40.87,35.12h26.88c22.57,0,40.87-12.5,40.87-35.02V159.36c0-26.56,21.58-48.09,48.21-48.09H437.68c20,0,36.22-16.18,36.22-36.14V39.04c0-19.96-16.22-36.14-36.22-36.14L100.59,5.41C45.04,5.41,0,50.34,0,105.77Z"/>
      <path class="cls-2" d="M754.35,502.98v-42.7c0-17.96,14.56-32.52,32.52-32.52h164.28c17.96,0,32.52,14.56,32.52,32.52v40.73c0,19.05-15.44,34.49-34.49,34.49h-162.31c-17.96,0-32.52-14.56-32.52-32.52Z"/>
    </g>
  </g>
</svg>