<svg xmlns="http://www.w3.org/2000/svg" data-name="Layer 1" viewBox="0 0 4000 4000" id="pizza-piece"><g opacity=".25"><ellipse cx="2000" cy="3549.135" fill="#6b184e" rx="987.209" ry="108.745"></ellipse></g><path fill="#6b184e" d="M3198.585 2052.96a16.42 16.42 0 1 1 6.304-1.16 21.78 21.78 0 0 1-3.404.894 16.088 16.088 0 0 1-2.9.266Zm-4.458-31.047a.113.113 0 0 1-.02.005.113.113 0 0 0 .02-.005Zm.024-.01a.083.083 0 0 0-.02.008.083.083 0 0 1 .02-.008Zm.02-.005a.033.033 0 0 0-.015.005.033.033 0 0 1 .015-.005Zm.02-.007-.015.005Zm.014-.005ZM3090.548 2052.145a13.223 13.223 0 0 1-4.463-.779 35.878 35.878 0 0 1-1.602-.559 13.237 13.237 0 0 1 9.56-24.688l1.016.342a13.239 13.239 0 0 1-4.511 25.684Z"></path><path fill="#cc8237" d="M3053.238 1895.793c-30.293-137.726 124.374-196.671 184.96-156.908"></path><path fill="#6b184e" d="M1740.947 2562.982c-37.807 18.341-74.533 39.524-110.752 61.588-36.184 22.166-71.848 45.36-107.282 68.993-70.96 47.154-140.735 96.387-211.932 143.961-35.686 23.654-71.584 47.166-108.823 68.774-37.121 21.766-75.273 42.24-116.003 58.298-10.205 3.966-20.51 7.754-31.155 10.87-5.234 1.723-10.73 2.926-16.084 4.39-5.522 1.101-10.915 2.496-16.582 3.21a128.55 128.55 0 0 1-34.597 1.158c-11.746-1.263-23.911-4.757-34.36-11.687-10.506-6.841-18.521-16.894-23.677-27.537a98.868 98.868 0 0 1-6.238-16.37c-1.248-5.576-2.68-11.123-3.245-16.695-3.005-22.27-1.784-44.194 1.087-65.628a5.3 5.3 0 0 1 10.547.92l-.003.05c-.95 21.02-.745 42.179 3.389 62.064 3.803 19.81 12.74 38.375 28.166 47.258 15.386 8.99 35.73 8.788 55.237 4.789 19.71-3.63 39.255-10.977 58.355-19.061 19.118-8.234 37.856-17.75 56.313-27.874q27.704-15.174 54.905-31.612 54.217-33.09 107.537-68.313c71.15-46.778 141.345-95.42 212.48-142.99 35.6-23.744 71.528-47.114 108.157-69.552 36.687-22.345 74.009-43.896 113.044-62.838a13.235 13.235 0 1 1 11.555 23.815ZM2740.635 2014.824c-8.035 6.582-16.58 11.668-25.257 16.39-8.657 4.769-17.6 8.752-26.591 12.613-8.995 3.856-18.15 7.299-27.334 10.687-9.18 3.399-18.27 7.031-27.32 10.755-18.071 7.537-35.515 16.51-53.7 23.776-9.1 3.63-18.224 7.201-27.726 9.969-9.475 2.823-19.106 5.327-29.416 6.422a5.585 5.585 0 0 1-6.157-4.95 5.655 5.655 0 0 1 1.709-4.657c7.539-7.153 15.788-12.84 24.223-18.131a265.285 265.285 0 0 1 26.138-14.098c17.793-8.611 36.48-15.177 54.695-22.81 9.094-3.855 18.186-7.714 27.222-11.723 9.04-4 18.144-7.856 27.443-11.212a253.832 253.832 0 0 1 28.423-8.686c9.705-2.263 19.578-4.064 29.995-4.284a5.6 5.6 0 0 1 5.716 5.479 5.682 5.682 0 0 1-2.063 4.46ZM2076.223 2349.778c-8.594 13.21-19.739 22.225-31.42 30.399-11.683 8.169-24.476 14.587-36.358 22.443-12.02 7.646-23.247 16.508-35.63 23.584-12.334 7.157-25.22 13.45-40.725 15.844l-.137.022a5.762 5.762 0 0 1-5.696-8.858c8.54-12.997 19.698-22.096 31.407-30.332 11.66-8.318 24.477-14.848 36.504-22.593 12.158-7.537 23.41-16.511 35.773-23.736 12.359-7.218 25.26-13.593 40.71-15.777a5.782 5.782 0 0 1 5.66 8.868ZM2677.695 1343.252c13.191 6.914 25.008 15.537 36.309 24.727a339.743 339.743 0 0 1 31.738 29.879 406.955 406.955 0 0 1 28.247 33.21c8.716 11.665 17.051 23.634 23.982 36.66a5.41 5.41 0 0 1-8.118 6.797c-11.525-9.014-22.028-18.766-32.529-28.48-10.427-9.775-20.525-19.791-30.53-29.891-10.01-10.097-19.821-20.365-29.272-31.064-9.404-10.752-18.655-21.694-26.887-33.947a5.46 5.46 0 0 1 7.06-7.891ZM2116.692 1057.948a902.459 902.459 0 0 1 111.997 24.526 1003.922 1003.922 0 0 1 108.56 37.64 970.17 970.17 0 0 1 103.066 50.968 804.348 804.348 0 0 1 95.557 63.6 5.313 5.313 0 0 1-5.777 8.874c-33.408-17.91-66.93-35.112-100.857-51.338-33.882-16.315-68.35-31.213-103.051-45.504q-51.966-21.658-105.015-41.002c-35.376-12.908-71.091-25.113-106.997-37.478a5.316 5.316 0 0 1 2.517-10.286Z"></path><path fill="#ffca28" d="M2974.057 1924.178c-221.456-505.78-841.435-858.107-1389.704-830.324-35.99 62.443-72.884 131.168-110.109 204.79 156.372 22.108 184.258 196.15 119.474 317.733-80.435 150.787-219.97 298.233-365.96 247.117-1.4-.456-2.767-.979-4.135-1.502-56.209 142.75-108.8 289.492-154.873 434.019 77.44-84.11 180.63-109.677 249.274-67.188 85.055 52.704 97.958 155.697-13.779 287.478-85.227 100.553-200.63 147.798-271.9 94.498-18.413-13.773-31.624-32.497-39.817-54.643q-10.503 39.76-20.134 78.816c-17.965 72.925-33.378 143.87-45.806 211.837q-4.164 22.57-7.852 44.744l.018.05q-5.92 35.593-10.694 69.99c-13.419 97.61 89.626 169.355 176.757 123.384q126.652-78.389 250.829-155.05a109.353 109.353 0 0 1 6.146-3.096c92.445-44.158 165.42 46.649 225.243 19.598 30.15-13.639 40.088-41.531 46.293-122.51 12.528-133.78 235.804-159.184 284.038 15.008 44.016 160.182 175.03 126.418 140.896.034-5.8-21.427-15.873-41.44-28.571-59.672-68.557-97.951-110.029-178.313 1.3-257.89q138.297-81.2 267.898-154.009c.1-.035.232-.139.332-.174 83.898-42.117 152.944-28.556 214.498-15.354a204.294 204.294 0 0 0 222.868-103.179c35.106-65.387 66.298-139.215 125.565-168.765a1.982 1.982 0 0 1 .53-.246 123.652 123.652 0 0 1 12.279-5.287c9.408-4.035 18.716-8.036 27.961-11.9 12.905-4.948 25.08-9.58 36.68-13.78a442.47 442.47 0 0 1 7.858-2.863c49.906-17.83 89.27-27.396 134.997-19.783a118.605 118.605 0 0 0 21.981 10.699c-31.853-12.682-85.29-54.307-110.381-112.58Zm-1131.55-420.409c24.957-37.306 63.336-74.18 111.46-104.078 111.828-69.523 227.682-70.661 273.033-12.486 51 65.488 19.002 155.627-132.077 239.285-115.235 63.77-234.136 75.103-273.035 12.487-22.197-35.696-12.501-85.82 20.62-135.208Zm678.56 596.863q-118.984 55.242-240.184 122.689l-.481.228-.363.242q-102.648 56.827-206.602 121.485c-118.735-2.05-214.148-42.676-235.456-110.34-31.47-99.733 90.085-239.125 268.529-317.944 178.384-78.515 360.38-47.627 409.602 75.672 12.934 32.427 13.523 74.043 4.955 107.968Z"></path><path fill="#e93b47" d="M2521.067 2100.632c-146.79 68.128-296.217 150.746-447.63 244.644-118.735-2.05-214.148-42.676-235.456-110.34-31.47-99.733 90.085-239.125 268.529-317.944 178.384-78.515 360.38-47.627 409.602 75.672 12.934 32.427 13.523 74.043 4.955 107.968Z"></path><path fill="#6b184e" d="M2842.691 2095.558a15.884 15.884 0 0 1-6.401-30.425c3.833-1.687 7.73-3.347 11.548-4.975l.893-.381a15.882 15.882 0 0 1 12.461 29.218l-.898.384c-3.711 1.582-7.495 3.193-11.22 4.831a15.805 15.805 0 0 1-6.383 1.348Z"></path><path fill="#eb984e" d="M3198.565 2037.08c-36.772 10.215-75.692 12.37-109.301 1.383-1.079-.345-2.176-.74-3.255-1.085a11.923 11.923 0 0 1-1.57-.62c-31.854-12.681-85.29-54.306-110.382-112.58-221.456-505.78-841.435-858.107-1389.704-830.324a88.559 88.559 0 0 1-9.31-7.805c-80.25-77.02 36.104-264.646 170.375-280.01a147.504 147.504 0 0 1 27.984-.665c645.634 19.568 1208.853 395.714 1531.808 909.59 96.32 164.49-5.139 294.51-106.645 322.116Z"></path><path fill="#6b184e" d="M2010.992 2537.282a15.883 15.883 0 0 1-11.392-26.949 16.964 16.964 0 0 1 1.66-1.484 15.883 15.883 0 0 1 21.387 23.41 16.975 16.975 0 0 1-1.66 1.485 15.827 15.827 0 0 1-9.995 3.538Z"></path><path fill="#e93b47" d="M2094.923 1626.49c-115.235 63.77-234.136 75.103-273.035 12.487-22.197-35.696-12.501-85.82 20.62-135.208 24.956-37.306 63.335-74.18 111.458-104.078 111.83-69.523 227.683-70.661 273.034-12.486 51 65.488 19.002 155.627-132.077 239.285ZM1593.718 1616.377c-80.435 150.787-219.97 298.233-365.96 247.117-1.4-.456-2.767-.979-4.135-1.502a622.852 622.852 0 0 1 2.09-75.349c16.677-195.022 117.586-418.955 248.531-488 40.21 5.704 71.91 21.42 95.749 43.768 68.827 64.404 71.846 183.634 23.725 273.966ZM1271.15 2551.287c-121.855 87.722-199.4 94.119-243.139 61.229-91.563-68.875-34.766-310.218 74.283-338.271 34.306-26.873 71.376-44.277 106.963-52.775 148.78-35.333 272.186 85.693 61.894 329.817Z"></path><g opacity=".25"><ellipse cx="2370.19" cy="1678.321" fill="#e66e5f" rx="40.489" ry="24.772" transform="rotate(-23.379 2370.19 1678.321)"></ellipse></g><g opacity=".25"><ellipse cx="1817.204" cy="1373.618" fill="#e66e5f" rx="40.489" ry="24.772" transform="rotate(-23.379 1817.204 1373.618)"></ellipse></g><g opacity=".25"><ellipse cx="2562.29" cy="1764.776" fill="#e66e5f" rx="20.914" ry="12.796" transform="rotate(-23.379 2562.29 1764.776)"></ellipse></g><g opacity=".25"><ellipse cx="1555.412" cy="2194.277" fill="#e66e5f" rx="40.489" ry="24.772" transform="rotate(-19.66 1555.412 2194.277)"></ellipse><ellipse cx="1644.826" cy="2054.433" fill="#e66e5f" rx="14.626" ry="8.949" transform="rotate(-19.66 1644.826 2054.433)"></ellipse><ellipse cx="1690.756" cy="2153.677" fill="#e66e5f" rx="27.737" ry="16.971" transform="rotate(-19.66 1690.756 2153.678)"></ellipse><ellipse cx="1833.051" cy="1824.093" fill="#e66e5f" rx="40.489" ry="24.772" transform="rotate(-23.379 1833.052 1824.093)"></ellipse><ellipse cx="1862.132" cy="1915.59" fill="#e66e5f" rx="20.914" ry="12.796" transform="rotate(-23.38 1862.132 1915.59)"></ellipse><ellipse cx="1693.87" cy="1901.683" fill="#e66e5f" rx="27.018" ry="16.531" transform="rotate(-23.379 1693.87 1901.683)"></ellipse></g><g opacity=".25"><path fill="#e66e5f" d="M2199.32 1753.224c1.662 4.655-3.157 10.63-10.764 13.349s-15.122 1.147-16.784-3.507 3.156-10.63 10.763-13.348 15.121-1.148 16.784 3.506Z"></path></g><g opacity=".25"><ellipse cx="1722.819" cy="1499.519" fill="#e66e5f" rx="14.626" ry="8.949" transform="rotate(-19.66 1722.819 1499.52)"></ellipse></g><g opacity=".25"><ellipse cx="1093.133" cy="2780.448" fill="#e66e5f" rx="40.489" ry="24.772" transform="rotate(-23.379 1093.133 2780.448)"></ellipse></g><g opacity=".25"><ellipse cx="1608.15" cy="2462.238" fill="#e66e5f" rx="40.489" ry="24.772" transform="rotate(-23.379 1608.15 2462.237)"></ellipse></g><g opacity=".25"><ellipse cx="1401.43" cy="2066.063" fill="#e66e5f" rx="23.529" ry="14.396" transform="rotate(-23.38 1401.43 2066.063)"></ellipse></g><g opacity=".25"><ellipse cx="1270.861" cy="2740.143" fill="#e66e5f" rx="28.258" ry="17.29" transform="rotate(-23.38 1270.861 2740.143)"></ellipse></g><g opacity=".25"><ellipse cx="1958.309" cy="1514.313" fill="#fff" rx="29.559" ry="13.888" transform="rotate(-19.66 1958.31 1514.313)"></ellipse></g><g opacity=".25"><ellipse cx="2135.735" cy="1448.581" fill="#fff" rx="16.344" ry="7.679" transform="rotate(-19.66 2135.735 1448.58)"></ellipse></g><g opacity=".25"><path fill="#fff" d="M2087.786 1484.92c.96 2.688-2.9 6.524-8.622 8.569s-11.14 1.522-12.1-1.166 2.9-6.526 8.622-8.57 11.14-1.522 12.1 1.166Z"></path></g><g opacity=".25"><ellipse cx="2057.535" cy="1432.949" fill="#fff" rx="20.67" ry="9.711" transform="rotate(-19.66 2057.535 1432.95)"></ellipse></g><g opacity=".25"><ellipse cx="1368.799" cy="1618.62" fill="#fff" rx="29.559" ry="13.888" transform="rotate(-44.776 1368.799 1618.62)"></ellipse></g><g opacity=".25"><path fill="#fff" d="M1472.726 1508.62c2.987 3.01.214 10.605-6.194 16.963s-14.023 9.072-17.01 6.061-.215-10.605 6.193-16.963 14.024-9.071 17.011-6.06Z"></path></g><g opacity=".25"><path fill="#fff" d="M1464.005 1587.025c2.01 2.027.144 7.14-4.17 11.419s-9.44 6.107-11.45 4.08-.145-7.14 4.169-11.419 9.44-6.107 11.451-4.08Z"></path></g><g opacity=".25"><ellipse cx="1403.587" cy="1470.034" fill="#fff" rx="20.67" ry="9.711" transform="rotate(-44.776 1403.587 1470.034)"></ellipse></g><g opacity=".25"><ellipse cx="1211.976" cy="2310.817" fill="#fff" rx="29.559" ry="13.888" transform="rotate(-50.704 1211.976 2310.817)"></ellipse></g><g opacity=".25"><path fill="#fff" d="M1083.508 2471.281c-3.282-2.686-1.308-10.526 4.409-17.512s13.012-10.471 16.294-7.785 1.308 10.526-4.409 17.512-13.012 10.471-16.294 7.785Z"></path></g><g opacity=".25"><path fill="#fff" d="M1116.202 2402.771c-2.21-1.808-.88-7.086 2.968-11.788s8.76-7.05 10.968-5.241.881 7.086-2.967 11.788-8.76 7.05-10.969 5.241Z"></path></g><g opacity=".25"><ellipse cx="1168.92" cy="2431.698" fill="#fff" rx="20.67" ry="9.711" transform="rotate(-50.704 1168.92 2431.698)"></ellipse></g><g opacity=".25"><ellipse cx="2109.915" cy="2070.321" fill="#fff" rx="35.294" ry="16.582" transform="rotate(-19.66 2109.915 2070.32)"></ellipse></g><g opacity=".25"><path fill="#fff" d="M2188.214 1988.278c1.396 3.908-4.215 9.485-12.533 12.456s-16.192 2.213-17.588-1.695 4.215-9.485 12.533-12.456 16.192-2.213 17.588 1.695Z"></path></g><g opacity=".25"><path fill="#fff" d="M2101.547 2145.987c1.705 4.775-5.15 11.588-15.312 15.219s-19.782 2.703-21.488-2.071 5.15-11.588 15.311-15.219 19.783-2.703 21.489 2.071Z"></path></g><g opacity=".25"><ellipse cx="2255.962" cy="2021.005" fill="#fff" rx="29.559" ry="13.888" transform="rotate(-19.66 2255.963 2021.006)"></ellipse></g><g opacity=".25"><ellipse cx="2215.433" cy="2123.184" fill="#fff" rx="17.482" ry="8.213" transform="rotate(-19.66 2215.433 2123.184)"></ellipse></g><g opacity=".25"><path fill="#fff" d="M2332.96 2057.51c1.016 2.841-3.064 6.896-9.112 9.057s-11.774 1.609-12.789-1.233 3.065-6.896 9.113-9.057 11.774-1.609 12.789 1.233Z"></path></g><g opacity=".8"><path fill="#fff" d="M992.528 2556.156q-10.503 39.76-20.134 78.816c-17.965 72.925-33.378 143.87-45.806 211.837q-4.164 22.57-7.852 44.744l.018.05q-5.92 35.593-10.694 69.99c-10.721 78.095 53.02 139.594 123.575 137.55-52.836-16.655-92.77-68.95-84.087-131.981q4.766-34.338 10.694-69.99l-.018-.05q3.72-22.158 7.851-44.744c12.429-67.967 27.841-138.912 45.807-211.837 3.157-12.878 6.446-25.86 9.718-38.89-12.911-12.534-22.567-27.918-29.072-45.495Zm591.825-1462.302c-35.99 62.443-72.884 131.168-110.109 204.79a195.748 195.748 0 0 1 38.074 9.165c36.442-71.88 76.469-147.57 111.523-208.386 74.101-3.762 149.457-.55 224.999 9.003-88.712-13.843-177.522-18.994-264.487-14.572Z"></path></g><path fill="#fff" d="M3297.732 1717.635c-322.955-513.875-886.174-890.022-1531.808-909.589a150.169 150.169 0 0 0-20.531-.03 19.14 19.14 0 0 0 .025-1.976 175.568 175.568 0 0 0-41.843 10.339l-1.297.463c-76.457 25.966-141.102 103.088-157.202 173.21a241.539 241.539 0 0 1 16.417-30.995c-18.896 47.224-18.472 94.8 12.118 125.584a6.07 6.07 0 0 0 3.36 1.704l.134.022a5.943 5.943 0 0 0 6.698-7.388c-18.148-68.307 24.968-160.283 102.903-213.665 25.804 16.558 76.177 5.018 91.23-21.45 215.285 9.48 421.138 58.438 611.628 138.883a6.124 6.124 0 0 1 3.584 4.67c12.64 71.976 195.835 165.337 269.39 140.917a6.049 6.049 0 0 1 5.182.582q51.776 32.928 101.272 69.078a5.968 5.968 0 0 1 2.425 4.605c2.298 55.241 46.835 114.227 129.618 103.266a6.018 6.018 0 0 1 4.745 1.398 2020.79 2020.79 0 0 1 380.271 445.184c22.959 39.213 34.684 76.454 37.85 110.817.682 7.392 11.403 7.405 11.969.004 3.321-43.478-7.203-92.773-38.138-145.633Z" opacity=".7"></path><g opacity=".6"><path fill="#fff" d="M1209.257 2221.47c1.424 3.989 2.176 6.25 2.176 6.25-188.151 84.535-228.19 292.063-171.478 380.304 0 0-4.302 1.649-11.944 4.492-91.563-68.875-34.766-310.218 74.283-338.271 34.306-26.873 71.376-44.277 106.963-52.775ZM1548.259 1348.622a157.494 157.494 0 0 1 30.101 22.127c26.178 24.492 42.83 56.94 50.779 92.722-4.414-46.659-22.303-89.965-55.162-120.727-23.838-22.347-55.538-38.063-95.748-43.768-130.946 69.045-231.855 292.979-248.532 488a622.83 622.83 0 0 0-2.09 75.35c1.368.522 2.668 1.014 4.068 1.47.194-15.98 1-32.29 2.405-48.815 6.25-73.09 24.357-150.226 51.416-221.763 56.504-11.491 82.32-71.102 54.46-114.974 27.359-46.646 58.852-87.035 93.32-116.965 32.03-27.813 78.083-33.586 114.983-12.657ZM2106.51 1916.992c-178.445 78.819-299.999 218.21-268.529 317.943a97.946 97.946 0 0 0 8.553 19.376c-16.84-98.438 101.66-228.756 271.892-303.966 172.462-75.894 348.282-49.545 404.205 63.714a138.74 138.74 0 0 0-6.519-21.395c-49.222-123.299-231.218-154.187-409.602-75.672ZM1814.269 1588.853c-4.095-30.975 15.313-13.803 39.798-52.728 23.899-37.993 63.336-74.18 111.459-104.078 111.83-69.523 227.683-70.661 273.034-12.486a118.97 118.97 0 0 1 9.706 14.578c-2.684-16.637-9.936-32.374-21.266-46.934-45.351-58.175-161.205-57.037-273.034 12.486-48.123 29.898-86.502 66.772-111.459 104.078-33.12 49.387-42.816 99.512-20.619 135.208.121.181-7.74-50.305-7.619-50.124Z"></path></g><g opacity=".8"><path fill="#fff" d="M1216.845 1988.263c69.192 35.21 35.321 138.047-59.696 166.034q-16.037 46.46-31.304 92.87a307.541 307.541 0 0 0-57.095 48.844c46.073-144.527 98.664-291.269 154.873-434.02 1.368.524 2.735 1.047 4.135 1.503a180.27 180.27 0 0 0 33.686 8.372q-22.75 57.882-44.599 116.397Z"></path></g><path fill="#6b184e" d="M2011.007 2537.284a15.883 15.883 0 0 1-8.057-29.58c96.846-56.86 184.565-107.29 268.17-154.165.16-.09.321-.178.487-.261a17.096 17.096 0 0 1 2.036-.933 15.883 15.883 0 0 1 12.837 29c-83.369 46.742-170.859 97.04-267.446 153.751a15.812 15.812 0 0 1-8.027 2.188ZM3198.585 2052.96a16.42 16.42 0 1 1 6.304-1.16 21.78 21.78 0 0 1-3.404.894 16.088 16.088 0 0 1-2.9.266Zm-4.458-31.047a.113.113 0 0 1-.02.005.113.113 0 0 0 .02-.005Zm.024-.01a.083.083 0 0 0-.02.008.083.083 0 0 1 .02-.008Zm.02-.005a.033.033 0 0 0-.015.005.033.033 0 0 1 .015-.005Zm.02-.007-.015.005Zm.014-.005ZM3090.572 2052.145a13.256 13.256 0 0 1-3.862-.579c-33.545-10.227-96.406-56.128-124.795-122.175-214.307-489.353-819.194-850.606-1376.895-822.32a13.235 13.235 0 1 1-1.337-26.435c567.968-28.804 1184.062 339.395 1402.514 838.218 26.016 60.527 83.32 99.8 108.228 107.39a13.238 13.238 0 0 1-3.853 25.9ZM3048.069 1896.931a154.165 154.165 0 0 1-7.747-38.642 129.935 129.935 0 0 1 4.11-40.323c6.977-26.601 23.09-51.025 44.44-68.376a152.504 152.504 0 0 1 74.187-32.235 130.46 130.46 0 0 1 40.708.464c13.413 2.432 26.76 7.775 37.337 16.64a5.326 5.326 0 0 1-5.513 8.98l-.298-.127c-21.32-9.136-45.376-7.587-67.559-1.966a163.75 163.75 0 0 0-60.85 30.506c-17.673 14.017-32.109 31.957-40.256 53.232a132.74 132.74 0 0 0-8.144 33.58 204.25 204.25 0 0 0-.076 35.992l.015.189a5.32 5.32 0 0 1-10.354 2.086ZM939.756 2848.004c-1.868 20.529-2.26 41.185 1.013 60.382 2.937 19.284 10.942 36.48 24.67 44.98 13.743 8.678 33.46 9.373 52.823 5.814 19.507-3.236 39.104-10.216 58.279-17.96 38.39-15.928 75.534-36.385 111.83-58.113 36.321-21.789 71.973-44.954 107.379-68.58 70.81-47.27 140.996-95.948 213.144-141.994q26.99-17.362 54.246-34.375 27.385-16.816 55.241-32.913c37.127-21.455 75.076-41.742 114.505-58.947a5.298 5.298 0 0 1 4.607 9.533c-37.415 20.078-73.513 42.526-109.29 65.48-17.866 11.521-35.505 23.42-53.144 35.325q-26.547 17.717-52.81 35.932c-69.947 48.677-139.732 97.874-211.268 144.956-35.786 23.511-71.918 46.63-108.981 68.508-37.13 21.74-74.837 42.918-115.391 59.67-10.164 4.137-20.442 8.102-31.091 11.401-5.232 1.814-10.745 3.114-16.116 4.672-5.552 1.197-10.967 2.688-16.692 3.498a133.158 133.158 0 0 1-35.232 1.95c-12.11-1.024-24.91-4.356-36.138-11.453-11.281-6.998-20.066-17.536-25.75-28.631-3.049-5.55-4.967-11.297-6.977-17.022-1.489-5.74-3.157-11.506-3.928-17.228-3.865-22.959-3.242-45.384-1.289-67.31a13.236 13.236 0 0 1 26.367 2.348l-.002.026ZM1926.277 2433.213c7.507-5.993 15.176-11.752 22.825-17.542q11.433-8.743 23.056-17.215c15.52-11.26 31.243-22.227 47.051-33.069 15.757-10.923 31.924-21.212 47.927-31.765 16.116-10.376 32.476-20.366 48.704-30.57 65.351-40.125 132.444-77.372 199.907-113.878 67.468-36.486 135.503-72.166 205.527-103.755 17.422-8.062 35.169-15.43 52.769-23.097 17.676-7.497 35.615-14.404 53.525-21.32 8.916-3.55 18-6.7 27.063-9.885 9.058-3.202 18.113-6.394 27.217-9.453 9.07-3.143 18.318-5.824 27.507-8.627 9.195-2.795 18.374-5.607 27.637-8.166a5.313 5.313 0 0 1 3.726 9.904l-.073.035c-17.266 8.325-34.68 16.15-52.051 24.04-17.276 8.131-34.715 15.792-52.03 23.748-34.58 16.008-69.296 31.615-103.705 47.926-68.836 32.536-137.395 65.829-204.51 101.998-67.121 36.158-132.607 75.264-198.115 114.312-32.832 19.41-65.393 39.273-98.398 58.476-16.394 9.78-32.962 19.292-49.563 28.775q-12.382 7.221-24.966 14.145c-8.36 4.663-16.7 9.358-25.198 13.82l-.046.024a5.315 5.315 0 0 1-5.786-8.861ZM2677.695 1343.252c13.191 6.914 25.008 15.537 36.309 24.727a339.743 339.743 0 0 1 31.738 29.879 406.955 406.955 0 0 1 28.247 33.21c8.716 11.665 17.051 23.634 23.982 36.66a5.41 5.41 0 0 1-8.118 6.797c-11.525-9.014-22.028-18.766-32.529-28.48-10.427-9.775-20.525-19.791-30.53-29.891-10.01-10.097-19.821-20.365-29.272-31.064-9.404-10.752-18.655-21.694-26.887-33.947a5.46 5.46 0 0 1 7.06-7.891ZM2116.692 1057.948a902.459 902.459 0 0 1 111.997 24.526 1003.922 1003.922 0 0 1 108.56 37.64 970.17 970.17 0 0 1 103.066 50.968 804.348 804.348 0 0 1 95.557 63.6 5.313 5.313 0 0 1-5.777 8.874c-33.408-17.91-66.93-35.112-100.857-51.338-33.882-16.315-68.35-31.213-103.051-45.504q-51.966-21.658-105.015-41.002c-35.376-12.908-71.091-25.113-106.997-37.478a5.316 5.316 0 0 1 2.517-10.286Z"></path><path fill="#6b184e" d="M1028.175 3114.955A137.225 137.225 0 0 1 892.33 2959.43c16.074-116.934 43.467-249.583 81.416-394.329-28.804-102.912 16.811-221.626 79.41-272.439 44.72-140.373 96.347-285.295 153.51-430.947-20.61-65.737 13.208-225.51 77.803-363.503 31.245-66.75 95.37-181.465 178.51-212.478 34.375-67.779 68.301-131.02 100.982-188.257-33.15-31.743-40.42-81.135-19.663-137.918 31.919-87.31 128.91-177.087 229.902-170.048 310.884 9.482 620.176 103.452 894.42 271.757 260.404 159.812 485.185 382.935 650.038 645.245 56.025 95.664 44.77 171.867 25.513 219.025-25.054 61.34-79.248 109.954-141.436 126.868-55.708 15.508-107.358 11.54-145.845-11.147-40.78-6.116-76.596 2.57-124.086 19.538-13.833 4.944-28.809 10.637-44.214 16.524-7.979 3.344-16.475 6.987-25.05 10.666l-2.318.996a1287.972 1287.972 0 0 0-12.725 5.493 15.882 15.882 0 0 1-12.695-29.116c4.33-1.89 8.667-3.777 12.964-5.598l2.255-.967c8.663-3.718 17.247-7.397 25.772-10.964 16.035-6.135 31.191-11.895 45.322-16.946 52.212-18.655 94.346-28.584 142.95-20.493a15.876 15.876 0 0 1 5.805 2.195c31.104 19.428 74.941 22.688 123.438 9.194 52.939-14.4 99.062-55.869 120.454-108.254 16.557-40.533 25.957-106.49-23.257-190.537-343.194-546.067-910.986-883.326-1518.59-901.741a14.553 14.553 0 0 1-.648-.032c-86.578-6.177-170.137 72.659-198.135 149.248-8.36 22.864-23.184 79.407 19.57 110.552a15.878 15.878 0 0 1 4.41 20.767c-35.347 61.333-72.252 129.978-109.693 204.025a15.893 15.893 0 0 1-9.385 7.979c-54.58 17.263-115.01 89.392-165.796 197.89-67.87 144.996-93.955 297.82-74.917 344.293a15.874 15.874 0 0 1 .083 11.835c-58.408 148.467-111.05 296.216-156.46 439.144a15.894 15.894 0 0 1-5.561 7.86c-55.87 42.227-98.75 153.429-70.952 245.484a15.87 15.87 0 0 1 .156 8.636c-38.213 145.17-65.728 278.01-81.792 394.826-5.46 39.705 10.933 77.17 43.843 100.22 32.93 23.066 73.755 25.742 109.301 7.197q126.424-78.244 250.367-154.763c.263-.166.537-.32.81-.469.357-.198.723-.386 1.094-.559 60.059-31.765 113.179-11.496 155.913 4.805 29.497 11.26 54.98 20.976 75.396 11.753 20.483-9.253 30.683-27.222 36.992-109.246 6.225-66.599 59.443-115.52 132.446-121.994 70.791-6.263 154.668 32.731 182.72 134.01 19.941 72.53 58.72 102.738 86.84 95.091 21.006-5.725 37.29-35.295 23.414-86.697-5.005-18.525-13.843-36.928-26.27-54.697-67.93-97.144-118.638-191.665 5.357-280.13a15.882 15.882 0 0 1 18.447 25.86c-92.96 66.323-74.444 126.426 2.226 236.064 14.541 20.791 24.942 42.535 30.904 64.622 19.555 72.424-9.995 115.889-45.728 125.625-41.91 11.423-99.175-20.408-125.81-117.288-24.751-89.365-95.87-115.534-149.292-110.82-47.632 4.226-98.145 34.636-103.604 93.052-6.074 79.006-15.547 117.42-55.566 135.498-32.476 14.656-65.171 2.18-99.795-11.023-40.733-15.542-82.857-31.611-130.523-5.986q-123.676 76.307-250.102 154.602c-.313.19-.625.37-.947.542a137.109 137.109 0 0 1-64.053 15.93Z"></path><path fill="#6b184e" d="M2278.902 2383.283a15.885 15.885 0 0 1-7.158-30.071c90.835-45.75 165.39-29.744 225.298-16.887 81.562 17.52 166.094-21.614 205.561-95.147 4.873-9.075 9.663-18.313 14.468-27.57 33.306-64.166 67.744-130.513 132.417-154.127a15.883 15.883 0 0 1 10.899 29.84c-53.072 19.374-84.615 80.148-115.122 138.92-4.873 9.387-9.732 18.755-14.673 27.96-46.114 85.924-144.893 131.627-240.22 111.183-57.89-12.427-123.51-26.513-204.34 14.197a15.806 15.806 0 0 1-7.13 1.702ZM2073.443 2358.495c-.078 0-.156 0-.234-.003-130.376-2.25-225.356-48.066-247.871-119.57-16.528-52.368 4.106-116.076 58.1-179.377 51.617-60.513 128.931-115.435 217.705-154.646 112.427-49.487 231.236-57.886 317.818-22.47 52.67 21.535 90.513 57.963 109.424 105.34 13.164 32.994 15.278 77.486 5.517 116.117a13.235 13.235 0 1 1-25.664-6.485c8.462-33.496 6.763-71.745-4.438-99.82-16.187-40.548-48.99-71.896-94.859-90.653-80.073-32.742-191.152-24.453-297.119 22.192-172.514 76.199-289.712 211.609-261.24 301.846 18.696 59.377 106.265 99.043 223.086 101.062a13.235 13.235 0 0 1-.225 26.467ZM1916.905 1694.113c-48.36 0-86.27-15.977-106.26-48.138-21.464-34.536-18.217-80.856 9.146-130.432 26.02-47.14 71.191-92.27 127.183-127.072 114.38-71.092 239.248-75.127 290.449-9.402v.002c21.797 27.981 29.75 60.2 23.008 93.179-11.729 57.349-66.753 114.685-159.112 165.81-67.348 37.278-132.012 56.053-184.414 56.053Zm206.978-335.247c-48.74 0-107.5 17.632-162.935 52.085-52.212 32.454-94.111 74.14-117.983 117.385-22.525 40.813-26.02 77.63-9.84 103.665 32.765 52.707 142.545 45.354 255.372-17.1 107.871-59.707 138.935-113.415 146.001-147.956 5.22-25.52-.825-49.612-17.954-71.61v.003c-19.058-24.465-52.456-36.472-92.661-36.472ZM1101.768 2645.89c-28.75.002-55.21-7.935-77.348-24.492-15.84-11.846-30.874-24.312-40.874-45.083a13.092 13.092 0 0 1-2.422-1.819 13.23 13.23 0 0 1-.508-18.709l1.958-2.067a13.232 13.232 0 0 1 22.022 4.506c6.65 17.974 16.801 27.857 35.678 41.975 62.246 46.548 169.014 7.664 253.872-92.458 58.003-68.403 84.307-132.139 76.08-184.321-5.41-34.329-25.323-62.37-59.175-83.35-57.989-35.898-155.24-4.514-236.465 76.34a13.234 13.234 0 1 1-18.672-18.76c91.377-90.961 199.502-123.139 269.077-80.085 40.127 24.868 64.81 60.044 71.382 101.731 9.468 60.025-18.901 131.106-82.036 205.562-65.933 77.793-145.469 121.025-212.569 121.03ZM1287.97 1887.135a194.202 194.202 0 0 1-64.585-11.147c-1.343-.435-2.925-1.036-4.507-1.641a13.236 13.236 0 1 1 9.492-24.712c1.152.444 2.305.889 3.491 1.274 137.832 48.26 271.22-92.746 350.176-240.764 37.344-70.078 41.416-154.814 10.371-215.869-23.496-46.21-64.995-74.748-120.015-82.527a13.236 13.236 0 1 1 3.702-26.21c63.95 9.042 112.329 42.495 139.912 96.74 34.834 68.518 30.674 162.85-10.61 240.32-72.188 135.327-188.873 264.536-317.427 264.536Z"></path><path fill="#6b184e" d="M1852.632 1506.897c-5.691 20.3-9.736 41.413-6.912 60.531a52.177 52.177 0 0 0 10.09 24.883c5.34 6.82 12.9 11.817 21.734 15.006a92.137 92.137 0 0 0 28.906 4.905 180.8 180.8 0 0 0 30.928-2.124c20.798-3.058 41.497-8.975 61.65-16.378a460.105 460.105 0 0 0 58.909-26.688 559.152 559.152 0 0 0 55.39-33.828c35.423-24.788 68.555-53.542 94.205-88.431a5.303 5.303 0 0 1 8.884 5.762 246.572 246.572 0 0 1-18.999 28.04 297.136 297.136 0 0 1-22.136 25.593 421.073 421.073 0 0 1-50.554 44.757 489.098 489.098 0 0 1-117.923 65.499c-21.172 8.072-43.076 14.693-65.954 18.368a191.014 191.014 0 0 1-35.066 2.4 114.681 114.681 0 0 1-36.08-6.343c-11.882-4.268-23.569-11.746-31.85-22.405-8.33-10.576-12.878-23.486-14.404-35.8-3.089-24.916 2.146-48.159 8.938-69.964a10.588 10.588 0 0 1 20.307 5.99ZM1518.535 1357.823a130.43 130.43 0 0 1 28.013 26.825 136.324 136.324 0 0 1 19.014 34.292c9.543 24.568 11.89 51.259 10.053 76.936-4.045 51.67-22.702 100.291-47.439 144.347a465.425 465.425 0 0 1-42.69 62.715 418.986 418.986 0 0 1-52.561 54.78c-19.187 16.596-40.137 31.537-63.482 42.426-23.07 10.896-49.318 18.103-75.551 14.475a5.298 5.298 0 0 1 .908-10.543l.127.006c23.43.916 46.35-7.214 67.185-18.438a243.637 243.637 0 0 0 30.005-19.519 322.876 322.876 0 0 0 27.673-23.073c35.108-33.041 64.79-72.028 88.445-114.077a432.984 432.984 0 0 0 30.195-65.496c8.213-22.52 14.097-45.85 16.563-69.38 2.468-23.504 1.17-47.286-5.572-69.56a129.534 129.534 0 0 0-37.485-58.434 5.304 5.304 0 0 1 6.577-8.297ZM1887.908 2172.896a124.729 124.729 0 0 0 30.207 40.764c12.561 11.37 27.136 20.622 42.637 28.217 31.16 15.127 65.84 23.527 101.277 26.2l.076.005a5.325 5.325 0 0 1 .417 10.572c-18.674 2.896-37.808 2.215-56.504-.824a201.61 201.61 0 0 1-54.41-16.97c-17.29-8.256-33.605-19.31-46.98-33.632-13.344-14.192-23.537-32.108-26.855-51.27a5.334 5.334 0 0 1 10.108-3.125ZM1082.158 2571.733c17.796 3.326 36.126.556 53.433-5.134 17.368-5.773 33.689-14.822 49.119-25.08a306.994 306.994 0 0 0 43.024-35.494 359.868 359.868 0 0 0 36.829-42 334.063 334.063 0 0 0 29.4-47.132 216.661 216.661 0 0 0 19.057-51.284c3.96-17.638 4.949-35.752 1.63-53.14a97.973 97.973 0 0 0-24.113-47.297l-.246-.268a5.288 5.288 0 0 1 7.485-7.459c3.708 3.412 7.515 6.82 11.106 10.46 3.14 4.018 6.606 7.888 9.497 12.167a106.65 106.65 0 0 1 12.873 28.263c5.926 20.052 5.704 41.326 2.137 61.326-7.544 40.217-26.804 76.45-50.784 108.014-24.27 31.474-53.76 58.829-87.693 79.775a203.03 203.03 0 0 1-54.922 24.077c-19.45 5.151-40.73 6.372-60.505.452a5.296 5.296 0 0 1 2.466-10.285Z"></path><g opacity=".3"><path fill="#6b184e" d="M3293.053 1955.369c12.172-7.16 28.963-34.747 39.753-44.673-23.066 65.415-78.652 111.247-134.241 126.384-36.772 10.215-75.692 12.37-109.301 1.383-1.079-.345-2.176-.74-3.255-1.086a11.923 11.923 0 0 1-1.57-.619c-31.854-12.682-85.29-54.307-110.382-112.58-221.456-505.78-841.435-858.107-1389.704-830.324-63.925-46.592-34.905-148.371 31.696-217.815-21.81 52.88-19.557 106.55 22.016 136.841 589.551-61.252 1167.373 293.768 1389.704 830.324a193.38 193.38 0 0 0 18.134 33.606 133.265 133.265 0 0 1 258.757-45.053c12.771 35.747 8.57 88.294-11.607 123.612Z"></path></g><g opacity=".3"><path fill="#6b184e" d="M3084.438 2036.758a118.605 118.605 0 0 1-21.98-10.7c-45.727-7.612-85.092 1.955-134.998 19.784-9.77 3.49-45.167 24.007-55.865 28.054-1.175-1.717-2.35-3.433-3.426-5.185-4.38 1.902-8.778 3.755-13.208 5.674a123.652 123.652 0 0 0-12.279 5.287 1.982 1.982 0 0 0-.53.246c-59.266 29.55-90.459 103.378-125.565 168.765a204.294 204.294 0 0 1-222.868 103.179c-61.554-13.202-130.6-26.763-214.498 15.354-.1.035-.232.139-.332.174q-129.339 72.519-267.897 154.01c-111.33 79.576-69.858 159.938-1.301 257.89 12.698 18.231 22.771 38.244 28.571 59.671 34.134 126.384-96.88 160.148-140.896-.034-48.234-174.192-271.51-148.788-284.038-15.009-6.205 80.98-16.142 108.872-46.293 122.511-61.133 27.631-136.05-67.823-231.389-16.503q-124.03 76.525-250.829 155.051c-87.131 45.97-190.176-25.773-176.757-123.385q4.767-34.337 10.694-69.99c49.316 201.297 357.745-43.987 633.727-233.435l376.693-220.537c23.6-14.392 18.82-49.62-7.599-57.75-59.412-18.283-102.14-50.16-115.532-92.72-14.282-45.325 3.027-98.845 42.918-151.157-15.969 34.77-20.552 68.677-10.98 98.932 21.308 67.665 116.72 108.292 235.456 110.34q103.966-64.465 206.602-121.484a2.996 2.996 0 0 1 .844-.47l213.765-108.36 32.85-16.627 201.435-86.694c44.314-17.743 65.263-67.054 49.945-109.93a87.916 87.916 0 0 0-8.043-16.69c-256.068-412.573-760.475-701.68-1240.132-694.755q27.056-50.312 53.65-96.411c548.269-27.783 1168.248 324.544 1389.704 830.324 25.091 58.273 78.528 99.898 110.381 112.58Z"></path></g><g opacity=".3"><path fill="#6b184e" d="M2494.74 2113.017c-.036.688-.089 1.325-.092 1.945l-213.766 108.359q107.734-59.824 213.858-110.303Z"></path></g><g opacity=".3"><path fill="#6b184e" d="M2526.68 2047.58c.076 1.94.1 3.9.058 5.826a.164.164 0 0 1-.014.118c-.039 1.307-.437 11.68-1.212 22.414-.029.235-.025.402-.053.637a190.69 190.69 0 0 1-4.392 24.057c-146.79 68.128-296.217 150.746-447.63 244.644-118.735-2.05-214.148-42.676-235.456-110.34-14.064-44.56 2.447-97.009 40.9-148.469-9.695 28.256-11.387 55.62-3.521 80.47 11.318 35.928 35.712 66.284 73.901 87.103 60.131 32.825 133.506 29.547 192.612-5.174 96.42-56.604 200.784-111.13 297.142-158.749 45.384-22.428 68.358-74.902 52.003-122.81q-.2-.587-.407-1.176l34.097 82.379c.68-.3 1.293-.63 1.973-.93Z"></path></g><g opacity=".3"><path fill="#6b184e" d="M2526.724 2053.524a187.66 187.66 0 0 1-1.212 22.414c.775-10.733 1.173-21.107 1.212-22.414Z"></path></g><g opacity=".3"><path fill="#6b184e" d="M2525.459 2076.575c-.903 12.579-2.355 25.353-4.392 24.057a190.69 190.69 0 0 0 4.392-24.057Z"></path></g><g opacity=".3"><path fill="#6b184e" d="M1386.384 2381.77c28.957 206.94-342.915 416.422-406.867 224.515.524-2.155 6.733-17.19 16.221-37.052 30.168 71.694 113.845 98.355 275.413-17.947 55.391-64.314 87.607-120.012 102.367-166.662 8.233-1.817 12.866-2.854 12.866-2.854Z"></path></g><g opacity=".3"><path fill="#6b184e" d="M1197.755 1928.689s13.24-26.825 31.908-64.583c145.314 49.222 283.958-97.569 364.055-247.73 38.607-72.428 44.295-163.51 9.466-229.998a69.131 69.131 0 0 1 1.428-1.353c211.645 311.676-317.212 661.46-406.858 543.664Z"></path></g><g opacity=".3"><path fill="#6b184e" d="M1593.718 1616.377c-80.435 150.787-219.97 298.233-365.96 247.117-1.4-.456-2.767-.979-4.135-1.502a622.852 622.852 0 0 1 2.09-75.349c107.919 92.94 390.508-112.473 344.28-444.232 68.827 64.404 71.846 183.634 23.725 273.966Z"></path></g><g opacity=".3"><path fill="#6b184e" d="M2236.265 1500.942c.372 55.017-46.793 117.967-154.595 177.675-115.235 63.77-234.136 75.103-273.035 12.487-17.029-27.366-15.284-63.238 1.347-100.719-.707 17.849 3.062 34.38 11.906 48.592 38.9 62.616 157.8 51.282 273.035-12.487 75.002-41.524 120.598-84.63 141.342-125.548Z"></path></g><g opacity=".3"><path fill="#6b184e" d="M2235.935 1400.38c25.2 70.538-16.594 157.205-141.012 226.11-115.235 63.77-234.136 75.103-273.035 12.487-14.514-23.318-15.397-52.854-4.984-84.29a76.958 76.958 0 0 0 8.895 20.49c38.899 62.617 157.8 51.283 273.034-12.486 83.078-45.985 120.023-117.587 137.102-162.31Z"></path></g><g opacity=".3"><path fill="#6b184e" d="M981.64 2480.942c58.537 136.986 179.705 125.915 304.23-27.426l32.828-67.648 7.255-57.764c25.954 66.357 23.057 132.029-21.515 196.71l-61.722 50.161-67.476 41.926s-59.197 14.186-64.44 15.785-59.596-10.58-61.812-11.678-43.735-19.461-45.71-29.827-21.637-110.24-21.637-110.24Z"></path></g></svg>