<?xml version="1.0" encoding="UTF-8"?>
<svg id="Layer_2" data-name="Layer 2" xmlns="http://www.w3.org/2000/svg" viewBox="0 0 1092 800.94">
  <defs>
    <style>
      .cls-1 {
        fill: #fff;
      }

      .cls-2 {
        fill: #fcee21;
      }
    </style>
  </defs>
  <g id="Layer_1-2" data-name="Layer 1">
    <g>
      <g>
        <path class="cls-1" d="M156.17,0V40.02h-57.3V212.22H57.03V40.02H.03V0H156.17Z"/>
        <path class="cls-1" d="M261.97,56.39c16.57,0,30.26,5.56,41.08,16.68,10.81,11.12,16.22,26.48,16.22,46.08v93.07h-39.11V124c0-10.1-2.73-17.84-8.18-23.19-5.46-5.35-12.73-8.03-21.83-8.03-10.11,0-18.19,3.14-24.25,9.4-6.06,6.26-9.09,15.67-9.09,28.19v81.85h-39.11V0h39.11V77.61c9.5-14.14,24.56-21.22,45.17-21.22Z"/>
        <path class="cls-1" d="M385.66,152.49c5.25,19,19.5,28.5,42.75,28.5,14.95,0,26.27-5.05,33.95-15.16l31.53,18.19c-14.96,21.63-36.99,32.43-66.09,32.43-25.06,0-45.17-7.57-60.33-22.74-15.16-15.16-22.74-34.26-22.74-57.3s7.47-41.88,22.43-57.15c14.96-15.26,34.15-22.89,57.6-22.89,22.23,0,40.57,7.68,55.03,23.04,14.45,15.36,21.67,34.36,21.67,56.99,0,5.05-.51,10.41-1.52,16.07h-114.29Zm-.61-30.31h77.31c-2.23-10.31-6.82-17.99-13.8-23.04-6.97-5.05-14.91-7.58-23.8-7.58-10.51,0-19.2,2.68-26.07,8.04-6.87,5.35-11.42,12.88-13.64,22.58Z"/>
        <path class="cls-1" d="M112.5,480.51c-31.94,0-58.31-10.61-79.12-31.83-20.82-21.22-31.23-47.4-31.23-78.52s10.41-57.55,31.23-78.67c20.81-21.12,47.19-31.68,79.12-31.68,19.2,0,36.94,4.5,53.21,13.49,16.26,9,28.95,21.17,38.05,36.53l-36.08,20.92c-5.26-9.5-12.73-16.92-22.43-22.28-9.7-5.35-20.62-8.03-32.74-8.03-20.61,0-37.24,6.47-49.87,19.4-12.63,12.94-18.95,29.71-18.95,50.33s6.31,37.09,18.95,50.02c12.63,12.94,29.26,19.4,49.87,19.4,12.13,0,23.09-2.68,32.89-8.03,9.8-5.35,17.23-12.68,22.28-21.98l36.08,20.92c-9.09,15.36-21.73,27.54-37.9,36.53-16.17,9-33.95,13.49-53.36,13.49Z"/>
        <path class="cls-1" d="M357.76,457.31c-15.57,15.46-34.56,23.19-56.99,23.19s-41.38-7.73-56.84-23.19c-15.46-15.46-23.19-34.41-23.19-56.84s7.73-41.38,23.19-56.84c15.46-15.47,34.41-23.19,56.84-23.19s41.43,7.73,56.99,23.19c15.56,15.46,23.34,34.41,23.34,56.84s-7.78,41.38-23.34,56.84Zm-86.25-26.83c7.78,7.88,17.53,11.82,29.25,11.82s21.52-3.94,29.41-11.82c7.88-7.88,11.82-17.89,11.82-30.01s-3.94-22.13-11.82-30.01c-7.88-7.88-17.69-11.82-29.41-11.82s-21.47,3.94-29.25,11.82c-7.78,7.88-11.67,17.89-11.67,30.01s3.89,22.13,11.67,30.01Z"/>
        <path class="cls-1" d="M523.59,264.05h39.11v212.22h-39.11v-17.89c-11.52,14.76-27.89,22.13-49.11,22.13s-37.85-7.73-52.3-23.19c-14.45-15.46-21.68-34.41-21.68-56.84s7.22-41.38,21.68-56.84c14.45-15.47,31.88-23.19,52.3-23.19s37.59,7.38,49.11,22.13v-78.52Zm-72,167.2c7.98,7.99,18.04,11.98,30.16,11.98s22.13-3.99,30.01-11.98c7.88-7.98,11.82-18.24,11.82-30.77s-3.94-22.79-11.82-30.77c-7.88-7.98-17.89-11.98-30.01-11.98s-22.18,4-30.16,11.98c-7.99,7.98-11.98,18.24-11.98,30.77s3.99,22.79,11.98,30.77Z"/>
        <path class="cls-1" d="M631.52,416.54c5.25,19,19.5,28.5,42.75,28.5,14.95,0,26.27-5.05,33.95-15.16l31.53,18.19c-14.96,21.63-36.99,32.44-66.09,32.44-25.06,0-45.17-7.58-60.33-22.74-15.16-15.16-22.74-34.26-22.74-57.3s7.47-41.88,22.43-57.15c14.96-15.26,34.15-22.89,57.6-22.89,22.23,0,40.57,7.68,55.03,23.04,14.45,15.36,21.67,34.36,21.67,56.99,0,5.05-.51,10.41-1.52,16.07h-114.29Zm-.61-30.31h77.31c-2.23-10.31-6.82-17.99-13.8-23.04-6.97-5.05-14.91-7.58-23.8-7.58-10.51,0-19.2,2.68-26.07,8.04-6.87,5.35-11.42,12.88-13.64,22.58Z"/>
        <path class="cls-1" d="M79.13,528.09c20.41,0,37.59,6.87,51.54,20.61,13.95,13.75,20.92,30.62,20.92,50.63s-6.97,36.89-20.92,50.63c-13.95,13.75-31.13,20.61-51.54,20.61H41.84v69.73H0v-212.22H79.13Zm0,103.38c8.89,0,16.27-3.08,22.13-9.25,5.86-6.16,8.79-13.79,8.79-22.89s-2.93-16.98-8.79-23.04c-5.86-6.07-13.24-9.1-22.13-9.1H41.84v64.27h37.29Z"/>
        <path class="cls-1" d="M200.09,680.58c5.25,19,19.5,28.5,42.75,28.5,14.95,0,26.27-5.05,33.95-15.16l31.53,18.19c-14.96,21.63-36.99,32.44-66.09,32.44-25.06,0-45.17-7.58-60.33-22.74-15.16-15.16-22.74-34.26-22.74-57.3s7.47-41.88,22.43-57.14c14.96-15.26,34.15-22.89,57.6-22.89,22.23,0,40.57,7.68,55.03,23.04,14.45,15.36,21.67,34.36,21.67,56.99,0,5.06-.51,10.41-1.52,16.07h-114.29Zm-.61-30.31h77.31c-2.23-10.31-6.82-17.99-13.8-23.04-6.97-5.05-14.91-7.58-23.8-7.58-10.51,0-19.2,2.68-26.07,8.03-6.87,5.36-11.42,12.89-13.64,22.59Z"/>
        <path class="cls-1" d="M471.12,721.36c-15.57,15.46-34.56,23.19-56.99,23.19s-41.38-7.73-56.84-23.19c-15.46-15.46-23.19-34.41-23.19-56.84s7.73-41.38,23.19-56.84c15.46-15.46,34.41-23.19,56.84-23.19s41.43,7.73,56.99,23.19c15.56,15.46,23.34,34.41,23.34,56.84s-7.78,41.38-23.34,56.84Zm-86.25-26.83c7.78,7.88,17.53,11.82,29.25,11.82s21.52-3.94,29.41-11.82c7.88-7.88,11.82-17.89,11.82-30.01s-3.94-22.13-11.82-30.01c-7.88-7.88-17.69-11.82-29.41-11.82s-21.47,3.94-29.25,11.82c-7.78,7.88-11.67,17.89-11.67,30.01s3.89,22.13,11.67,30.01Z"/>
        <path class="cls-1" d="M610.27,584.48c20.41,0,37.84,7.73,52.29,23.19,14.45,15.46,21.68,34.41,21.68,56.84s-7.23,41.38-21.68,56.84c-14.45,15.46-31.88,23.19-52.29,23.19s-37.6-7.38-49.12-22.13v78.52h-39.11v-212.22h39.11v17.89c11.52-14.75,27.89-22.13,49.12-22.13Zm-37.29,110.81c7.88,7.99,17.89,11.98,30.01,11.98s22.18-3.99,30.16-11.98c7.98-7.98,11.98-18.24,11.98-30.77s-3.99-22.79-11.98-30.77-18.04-11.98-30.16-11.98-22.13,3.99-30.01,11.98c-7.88,7.98-11.82,18.24-11.82,30.77s3.94,22.79,11.82,30.77Z"/>
        <path class="cls-1" d="M711.83,752.15v-221.31h39.11v221.31h-39.11Z"/>
        <path class="cls-1" d="M819.75,680.58c5.25,19,19.5,28.5,42.75,28.5,14.95,0,26.27-5.05,33.95-15.16l31.53,18.19c-14.96,21.63-36.99,32.44-66.09,32.44-25.06,0-45.17-7.58-60.33-22.74-15.16-15.16-22.74-34.26-22.74-57.3s7.47-41.88,22.43-57.14c14.96-15.26,34.15-22.89,57.6-22.89,22.23,0,40.57,7.68,55.03,23.04,14.45,15.36,21.67,34.36,21.67,56.99,0,5.06-.51,10.41-1.52,16.07h-114.29Zm-.61-30.31h77.31c-2.23-10.31-6.82-17.99-13.8-23.04-6.97-5.05-14.91-7.58-23.8-7.58-10.51,0-19.2,2.68-26.07,8.03-6.87,5.36-11.42,12.89-13.64,22.59Z"/>
      </g>
      <circle class="cls-2" cx="1035.36" cy="673.19" r="56.64"/>
    </g>
  </g>
</svg>